<svg width="28" height="28" viewBox="0 0 28 28" fill="none" xmlns="http://www.w3.org/2000/svg">
<path d="M26.934 27.0389C26.2646 27.644 25.3568 27.984 24.4102 27.984C23.4637 27.984 22.5558 27.644 21.8865 27.0389L14.0015 18.8913L6.11648 27.0362C5.78605 27.3399 5.39238 27.5814 4.95819 27.7468C4.524 27.9122 4.05789 27.9982 3.58673 28C3.11557 28.0017 2.64869 27.9191 2.21303 27.7569C1.77737 27.5947 1.38154 27.3561 1.04837 27.0549C0.715212 26.7537 0.451311 26.3958 0.271891 26.002C0.0924718 25.6081 0.00108521 25.186 0.00300373 24.7601C0.00492224 24.3341 0.100107 23.9127 0.283069 23.5202C0.46603 23.1277 0.733148 22.7718 1.06901 22.473L9.27227 14.0027L1.06604 5.52698C0.730173 5.22825 0.463056 4.87235 0.280095 4.47982C0.0971332 4.08728 0.00194811 3.66589 2.95917e-05 3.23993C-0.00188892 2.81397 0.0894977 2.39189 0.268917 1.99802C0.448337 1.60416 0.712238 1.2463 1.0454 0.945105C1.37856 0.643906 1.77439 0.405324 2.21006 0.243117C2.64572 0.0809113 3.1126 -0.0017077 3.58375 2.67527e-05C4.05491 0.00176121 4.52103 0.0878143 4.95522 0.253223C5.38941 0.418631 5.78307 0.660121 6.11351 0.963763L14.0015 9.1141L21.8865 0.963763C22.2169 0.660121 22.6106 0.418631 23.0448 0.253223C23.479 0.0878143 23.9451 0.00176121 24.4162 2.67527e-05C24.8874 -0.0017077 25.3543 0.0809113 25.7899 0.243117C26.2256 0.405324 26.6214 0.643906 26.9546 0.945105C27.2878 1.2463 27.5517 1.60416 27.7311 1.99802C27.9105 2.39189 28.0019 2.81397 28 3.23993C27.9981 3.66589 27.9029 4.08728 27.7199 4.47982C27.5369 4.87235 27.2698 5.22825 26.934 5.52698L18.7307 14.0027L26.934 22.473C27.2658 22.7727 27.5291 23.1286 27.7087 23.5203C27.8883 23.912 27.9808 24.3319 27.9808 24.756C27.9808 25.18 27.8883 25.5999 27.7087 25.9916C27.5291 26.3834 27.2658 26.7392 26.934 27.0389V27.0389Z" fill="#2A6D69"/>
</svg>
