<svg width="25" height="28" viewBox="0 0 25 28" fill="none" xmlns="http://www.w3.org/2000/svg">
<path d="M14.6562 22.75H15.9687C16.1428 22.75 16.3097 22.6809 16.4328 22.5578C16.5559 22.4347 16.625 22.2678 16.625 22.0938V10.2812C16.625 10.1072 16.5559 9.94028 16.4328 9.81721C16.3097 9.69414 16.1428 9.625 15.9687 9.625H14.6562C14.4822 9.625 14.3153 9.69414 14.1922 9.81721C14.0691 9.94028 14 10.1072 14 10.2812V22.0938C14 22.2678 14.0691 22.4347 14.1922 22.5578C14.3153 22.6809 14.4822 22.75 14.6562 22.75ZM23.625 4.375H19.1182L17.2588 1.27422C17.0255 0.885399 16.6954 0.563659 16.3007 0.340351C15.906 0.117044 15.4603 -0.000215654 15.0068 2.97744e-07H9.4932C9.03992 -2.67296e-05 8.59436 0.117322 8.1999 0.340621C7.80543 0.56392 7.47552 0.885558 7.24226 1.27422L5.3818 4.375H0.875C0.642936 4.375 0.420376 4.46719 0.256282 4.63128C0.0921872 4.79538 0 5.01794 0 5.25L0 6.125C0 6.35706 0.0921872 6.57962 0.256282 6.74372C0.420376 6.90781 0.642936 7 0.875 7H1.75V25.375C1.75 26.0712 2.02656 26.7389 2.51884 27.2312C3.01113 27.7234 3.67881 28 4.375 28H20.125C20.8212 28 21.4889 27.7234 21.9812 27.2312C22.4734 26.7389 22.75 26.0712 22.75 25.375V7H23.625C23.8571 7 24.0796 6.90781 24.2437 6.74372C24.4078 6.57962 24.5 6.35706 24.5 6.125V5.25C24.5 5.01794 24.4078 4.79538 24.2437 4.63128C24.0796 4.46719 23.8571 4.375 23.625 4.375ZM9.3975 2.78414C9.42674 2.73546 9.46812 2.69521 9.51758 2.66732C9.56705 2.63942 9.6229 2.62484 9.67969 2.625H14.8203C14.877 2.62494 14.9327 2.63956 14.9821 2.66745C15.0315 2.69534 15.0728 2.73554 15.102 2.78414L16.0568 4.375H8.4432L9.3975 2.78414ZM20.125 25.375H4.375V7H20.125V25.375ZM8.53125 22.75H9.84375C10.0178 22.75 10.1847 22.6809 10.3078 22.5578C10.4309 22.4347 10.5 22.2678 10.5 22.0938V10.2812C10.5 10.1072 10.4309 9.94028 10.3078 9.81721C10.1847 9.69414 10.0178 9.625 9.84375 9.625H8.53125C8.3572 9.625 8.19028 9.69414 8.06721 9.81721C7.94414 9.94028 7.875 10.1072 7.875 10.2812V22.0938C7.875 22.2678 7.94414 22.4347 8.06721 22.5578C8.19028 22.6809 8.3572 22.75 8.53125 22.75Z" fill="#2A6D69"/>
</svg>
